<?xml version="1.0" standalone="no"?>
<!DOCTYPE svg PUBLIC "-//W3C//DTD SVG 20010904//EN"
 "http://www.w3.org/TR/2001/REC-SVG-20010904/DTD/svg10.dtd">
<svg version="1.0" xmlns="http://www.w3.org/2000/svg"
 width="1024.000000pt" height="1024.000000pt" viewBox="0 0 1024.000000 1024.000000"
 preserveAspectRatio="xMidYMid meet">
<metadata>
Created by potrace 1.14, written by Peter Selinger 2001-2017
</metadata>
<g transform="translate(0.000000,1024.000000) scale(0.100000,-0.100000)"
fill="#000000" stroke="none">
<path d="M3825 7743 c-16 -1 -140 -4 -275 -6 -135 -2 -256 -7 -270 -10 -14 -4
-47 -12 -75 -18 -117 -28 -255 -112 -339 -207 -49 -55 -105 -140 -148 -227
-36 -70 -176 -392 -182 -420 -2 -5 -7 -19 -11 -30 -4 -11 -26 -65 -47 -120
-49 -125 -116 -260 -138 -280 -14 -12 -28 -14 -81 -6 -94 13 -325 11 -396 -4
-210 -45 -312 -166 -285 -339 29 -191 214 -398 389 -437 30 -7 52 -17 50 -23
-20 -54 -148 -468 -162 -523 -21 -85 -43 -217 -52 -310 -11 -104 -10 -1858 0
-1950 20 -181 83 -275 212 -316 97 -31 164 -38 400 -41 438 -5 577 75 603 348
4 46 7 167 7 269 l-2 185 1586 2 c872 1 1814 2 2094 3 279 0 509 -2 512 -5 3
-3 6 -97 6 -209 2 -281 14 -358 69 -441 52 -79 153 -128 294 -145 117 -14 410
-7 536 13 136 20 242 94 285 198 21 49 42 146 52 231 12 108 2 1602 -12 1804
-15 203 -53 393 -121 602 -21 63 -39 119 -40 124 -1 6 -15 47 -31 92 l-30 81
26 5 c102 19 174 60 261 147 220 222 223 483 7 588 -64 31 -79 35 -180 51 -80
13 -409 2 -438 -15 -4 -2 -14 18 -23 44 -10 26 -40 106 -68 177 -47 120 -71
176 -118 280 -9 22 -43 103 -75 180 -79 196 -109 256 -157 317 -149 192 -310
290 -533 323 -22 4 -51 9 -65 13 -22 6 -2959 10 -3035 5z m795 -287 c456 -7
951 -7 1255 1 454 11 703 7 823 -13 18 -3 58 -14 89 -25 139 -48 218 -131 314
-329 55 -115 57 -119 232 -540 91 -217 183 -433 205 -480 113 -237 132 -396
56 -461 -40 -34 -159 -44 -654 -56 -576 -15 -4078 -5 -4165 11 -208 39 -222
105 -89 441 31 77 64 158 73 180 22 47 144 357 226 570 179 466 335 655 560
681 22 3 51 7 65 9 14 3 129 8 255 11 127 4 231 7 232 8 1 1 39 0 85 -1 46 -1
243 -4 438 -7z m2183 -3033 c0 -167 -2 -306 -5 -309 -5 -4 -2764 -8 -3298 -4
l-55 0 2 288 c1 158 2 297 3 310 l0 22 1677 -2 1676 -3 0 -302z m966 248 c85
-26 173 -108 218 -199 24 -50 27 -68 27 -152 0 -84 -3 -102 -29 -155 -154
-318 -608 -277 -710 64 -13 42 -7 155 10 206 68 199 278 301 484 236z m-5008
-12 c240 -113 298 -404 117 -595 -160 -169 -435 -152 -573 36 -146 200 -64
475 170 568 76 31 211 26 286 -9z"/>
</g>
</svg>
